<svg width="444" height="302" viewBox="0 0 444 302" fill="none" xmlns="http://www.w3.org/2000/svg">
<g clip-path="url(#clip0_2474_3370)">
<rect width="178.41" height="179.088" rx="18.3734" transform="matrix(0.83205 -0.5547 0.830139 0.557556 73 167.166)" fill="#5852F9" fill-opacity="0.12"/>
</g>
<rect x="-0.562967" y="-0.000967305" width="179.088" height="179.765" rx="18.712" transform="matrix(0.83205 -0.5547 0.830139 0.557556 72.9063 166.853)" stroke="url(#paint0_linear_2474_3370)" stroke-opacity="0.1" stroke-width="0.67738"/>
<g clip-path="url(#clip1_2474_3370)">
<rect width="169.689" height="170.333" rx="18.3734" transform="matrix(0.83205 -0.5547 0.830139 0.557556 80.2676 189.895)" fill="#5852F9" fill-opacity="0.06"/>
</g>
<g clip-path="url(#clip2_2474_3370)">
<rect width="163.068" height="163.687" rx="18.3734" transform="matrix(0.83205 -0.5547 0.830139 0.557556 85.7871 209.438)" fill="#5852F9" fill-opacity="0.04"/>
</g>
<g filter="url(#filter0_d_2474_3370)">
<g clip-path="url(#clip3_2474_3370)">
<mask id="path-5-outside-1_2474_3370" maskUnits="userSpaceOnUse" x="68.2713" y="45.7492" width="306.675" height="205.21" fill="black">
<rect fill="white" x="68.2713" y="45.7492" width="306.675" height="205.21"/>
<path d="M89.3022 151.359C82.2824 146.644 82.2955 139.019 89.3314 134.329L209.084 54.4937C216.12 49.8031 227.514 49.8227 234.534 54.5374L354.011 134.783C361.031 139.498 361.018 147.123 353.982 151.813L234.23 231.648C227.194 236.339 215.799 236.319 208.78 231.605L89.3022 151.359Z"/>
</mask>
<g filter="url(#filter1_diii_2474_3370)">
<rect width="174.547" height="174.547" transform="matrix(0.83205 -0.5547 0.830139 0.557556 76.5918 142.822)" fill="url(#paint1_linear_2474_3370)"/>
</g>
<g filter="url(#filter2_d_2474_3370)">
<path d="M265.527 97.4105C267.765 98.7633 265.628 102.733 260.805 106.398C258.224 108.267 255.533 109.612 253.068 110.358C249.145 111.476 245.669 113.194 242.64 115.363L224.467 128.826C224.018 129.125 223.905 129.65 224.465 130.025C224.8 130.401 225.584 130.477 226.256 130.328L239.931 126.003C242.621 125.108 244.976 123.987 246.995 122.491C248.117 121.593 250.023 120.622 252.489 119.876C257.084 118.46 261.341 118.317 262.347 119.593C263.241 120.793 260.324 123.037 255.728 124.454C253.263 125.2 251.021 125.646 249.229 125.643C246.204 125.713 243.291 126.158 240.601 127.053L226.815 131.154C226.254 131.378 225.805 131.827 226.028 132.277C226.252 132.727 226.811 132.952 227.483 132.954L254.593 132.098C258.85 131.955 263.108 131.212 267.031 129.944C269.385 129.123 272.635 128.604 276.444 128.46C283.725 128.247 289.659 129.681 289.767 131.705C289.876 133.729 284.159 135.593 276.99 135.732C273.181 135.876 269.709 135.495 267.358 134.817C263.327 133.761 259.072 133.304 254.815 133.447L227.592 134.528C226.92 134.527 226.359 134.901 226.247 135.275C226.134 135.8 226.469 136.175 227.141 136.326L241.36 139.722C244.159 140.401 247.071 140.706 250.208 140.561C252.001 140.414 254.464 140.718 256.928 141.321C261.742 142.453 264.875 144.407 264.2 145.755C263.525 147.103 259.044 147.246 254.454 146.114C251.991 145.511 249.864 144.683 248.633 143.856C246.508 142.429 243.933 141.45 241.134 140.771L226.467 137.374C226.019 137.224 225.346 137.373 225.122 137.672L225.01 137.747C224.785 138.046 224.896 138.421 225.232 138.647C252.421 154.656 272.539 177.475 286.614 197.886C284.819 198.783 283.138 199.605 281.344 200.351C262.699 168.615 235.071 148.107 223.1 140.217C222.765 139.992 222.205 139.916 221.644 140.14C221.196 140.289 220.971 140.739 221.306 141.114L227.785 150.419C229.126 152.22 230.803 153.797 233.041 155.15C234.384 155.901 235.837 157.178 236.954 158.829C239.077 161.905 239.295 164.754 237.389 165.426C235.596 166.022 232.239 164.068 230.117 160.992C229 159.341 228.331 157.841 228.333 156.641C228.225 154.617 227.557 152.667 226.216 150.866L219.849 141.786C219.514 141.411 218.842 141.11 218.17 141.259C217.497 141.408 217.161 141.782 217.16 142.232L218.581 160.298C218.799 163.147 219.914 165.997 221.813 168.624C222.93 170.125 223.822 172.375 223.929 174.849C224.255 179.721 222.119 183.691 219.095 183.761C216.07 183.831 213.277 180.003 213.062 175.206C212.955 172.732 213.408 170.484 214.195 168.911C215.768 166.215 216.558 163.293 216.228 160.37L215.031 142.153C215.032 141.703 214.473 141.328 213.913 141.252C213.129 141.176 212.569 141.4 212.344 141.849L207.284 151.36C206.272 153.233 205.821 155.181 206.04 157.28C206.262 158.48 205.811 160.128 204.911 161.775C203.225 164.996 200.308 167.09 198.293 166.637C196.278 166.184 196.059 163.185 197.746 160.115C198.645 158.467 199.88 157.045 201.114 156.223C203.245 154.802 204.704 153.08 205.716 151.208L210.776 141.697C211.001 141.247 210.777 140.797 210.218 140.571C209.658 140.346 208.874 140.419 208.425 140.718L190.252 154.181C187.336 156.275 185.09 158.82 183.741 161.516C182.953 163.239 181.157 165.185 178.577 167.055C173.753 170.57 168.037 172.435 165.799 171.082C163.562 169.729 165.698 165.76 170.522 162.095C173.102 160.225 175.793 158.88 178.258 158.135C182.181 157.017 185.657 155.298 188.574 153.054L206.747 139.591C207.196 139.292 207.309 138.768 206.75 138.392C206.414 138.017 205.63 137.94 204.958 138.089L191.283 142.415C188.593 143.31 186.126 144.505 184.219 146.076C183.097 146.974 181.079 147.87 178.837 148.616C174.242 150.033 169.985 150.176 168.979 148.9C168.085 147.699 171.002 145.455 175.598 144.038C178.063 143.293 180.305 142.847 182.097 142.85C185.122 142.78 188.035 142.335 190.725 141.439L204.287 137.189C204.848 136.965 205.297 136.516 205.074 136.066C204.851 135.616 204.291 135.39 203.619 135.389L176.509 136.095C172.252 136.238 167.994 136.98 164.071 138.248C161.829 138.994 158.468 139.588 154.771 139.657C147.489 139.871 141.555 138.437 141.447 136.413C141.339 134.389 147.056 132.524 154.225 132.386C158.034 132.242 161.506 132.622 163.857 133.301C167.887 134.357 172.143 134.813 176.4 134.67L203.51 133.814C204.182 133.816 204.743 133.442 204.856 133.067C204.969 132.543 204.633 132.167 203.962 132.016L189.742 128.62C186.943 127.941 183.919 127.711 180.894 127.781C179.102 127.928 176.638 127.625 174.287 127.096C169.472 125.964 166.339 124.01 167.014 122.662C167.689 121.314 172.17 121.171 176.76 122.303C179.224 122.907 181.238 123.659 182.469 124.486C184.707 125.839 187.281 126.967 190.08 127.646L204.3 131.042C204.971 131.193 205.644 131.044 205.981 130.67C206.317 130.296 206.206 129.771 205.759 129.471L185.62 117.295C182.487 115.341 178.681 113.836 174.65 112.93C172.075 112.401 169.165 111.197 166.368 109.469C161.109 106.237 158.316 102.41 160.336 100.914C162.355 99.418 168.289 100.852 173.772 104.084C176.569 105.812 178.581 107.614 179.698 109.265C181.373 111.891 183.945 114.219 187.302 116.174L207.441 128.349C207.889 128.649 208.673 128.726 209.234 128.352C209.234 128.352 209.346 128.277 209.458 128.202C209.795 127.828 209.796 127.378 209.572 126.928L203.205 117.998C201.864 116.197 200.075 114.545 197.725 113.267C196.383 112.515 195.041 111.164 193.924 109.663C191.801 106.586 191.583 103.738 193.489 103.066C195.282 102.469 198.639 104.424 200.761 107.5C201.878 109.151 202.547 110.651 202.545 111.851C202.653 113.875 203.321 115.825 204.662 117.626L211.141 126.781C211.476 127.156 212.148 127.457 212.82 127.308C213.493 127.159 213.829 126.785 213.83 126.335L212.522 108.194C212.303 105.345 211.188 102.495 209.289 99.8684C208.06 98.2924 207.28 96.1174 207.061 93.5685C206.735 88.6958 208.871 84.7265 211.895 84.6564C214.92 84.5864 217.713 88.4136 217.928 93.2112C218.035 95.6849 217.582 97.9329 216.795 99.5057C215.222 102.202 214.432 105.124 214.762 108.048L216.183 126.114C216.182 126.564 216.741 126.94 217.301 127.016C218.085 127.092 218.646 126.868 218.871 126.418L223.93 116.907C224.942 115.035 225.282 113.012 225.174 110.988C224.952 109.788 225.404 108.14 226.191 106.567C227.877 103.346 230.794 101.252 232.809 101.705C234.825 102.158 235.043 105.157 233.357 108.227C232.457 109.875 231.334 111.222 230.101 112.045C228.081 113.541 226.398 115.262 225.386 117.134L220.327 126.646C220.102 127.095 220.325 127.545 220.884 127.771C221.444 127.997 222.228 127.923 222.677 127.624L240.85 114.161C243.767 112.067 246.012 109.522 247.362 106.826C248.149 105.103 249.945 103.157 252.525 101.287C257.573 97.7725 263.289 96.0577 265.527 97.4105Z" fill="white"/>
</g>
</g>
<path d="M76.5918 142.822L221.824 46.0006L76.5918 142.822ZM354.011 134.783C365.243 142.327 365.222 154.526 353.965 162.031L241.856 236.77C230.598 244.275 212.367 244.244 201.136 236.701L216.423 226.509C219.231 228.395 223.789 228.403 226.603 226.526L346.356 146.691C353.392 142.001 356.819 136.669 354.011 134.783ZM241.856 236.77C230.598 244.275 212.367 244.244 201.136 236.701L89.2846 161.577C78.053 154.033 78.074 141.834 89.3314 134.329C86.5171 136.205 89.9262 141.548 96.9459 146.263L216.423 226.509C219.231 228.395 223.789 228.403 226.603 226.526L241.856 236.77ZM221.824 46.0006L366.722 143.32L221.824 46.0006Z" fill="#4843D8" mask="url(#path-5-outside-1_2474_3370)"/>
</g>
<defs>
<filter id="filter0_d_2474_3370" x="0.0361557" y="0.0671024" width="443.242" height="349.49" filterUnits="userSpaceOnUse" color-interpolation-filters="sRGB">
<feFlood flood-opacity="0" result="BackgroundImageFix"/>
<feColorMatrix in="SourceAlpha" type="matrix" values="0 0 0 0 0 0 0 0 0 0 0 0 0 0 0 0 0 0 127 0" result="hardAlpha"/>
<feOffset dy="30.6223"/>
<feGaussianBlur stdDeviation="38.2778"/>
<feComposite in2="hardAlpha" operator="out"/>
<feColorMatrix type="matrix" values="0 0 0 0 0.761425 0 0 0 0 0.752653 0 0 0 0 1 0 0 0 0.16 0"/>
<feBlend mode="normal" in2="BackgroundImageFix" result="effect1_dropShadow_2474_3370"/>
<feBlend mode="normal" in="SourceGraphic" in2="effect1_dropShadow_2474_3370" result="shape"/>
</filter>
<filter id="filter1_diii_2474_3370" x="30.046" y="22.7276" width="383.223" height="287.233" filterUnits="userSpaceOnUse" color-interpolation-filters="sRGB">
<feFlood flood-opacity="0" result="BackgroundImageFix"/>
<feColorMatrix in="SourceAlpha" type="matrix" values="0 0 0 0 0 0 0 0 0 0 0 0 0 0 0 0 0 0 127 0" result="hardAlpha"/>
<feOffset dy="23.2729"/>
<feGaussianBlur stdDeviation="23.2729"/>
<feColorMatrix type="matrix" values="0 0 0 0 0.614694 0 0 0 0 0.578988 0 0 0 0 1 0 0 0 0.25 0"/>
<feBlend mode="normal" in2="BackgroundImageFix" result="effect1_dropShadow_2474_3370"/>
<feBlend mode="normal" in="SourceGraphic" in2="effect1_dropShadow_2474_3370" result="shape"/>
<feColorMatrix in="SourceAlpha" type="matrix" values="0 0 0 0 0 0 0 0 0 0 0 0 0 0 0 0 0 0 127 0" result="hardAlpha"/>
<feOffset dy="7.75764"/>
<feGaussianBlur stdDeviation="3.87882"/>
<feComposite in2="hardAlpha" operator="arithmetic" k2="-1" k3="1"/>
<feColorMatrix type="matrix" values="0 0 0 0 0.368471 0 0 0 0 0.341176 0 0 0 0 1 0 0 0 1 0"/>
<feBlend mode="normal" in2="shape" result="effect2_innerShadow_2474_3370"/>
<feColorMatrix in="SourceAlpha" type="matrix" values="0 0 0 0 0 0 0 0 0 0 0 0 0 0 0 0 0 0 127 0" result="hardAlpha"/>
<feOffset dy="-7.75764"/>
<feGaussianBlur stdDeviation="3.87882"/>
<feComposite in2="hardAlpha" operator="arithmetic" k2="-1" k3="1"/>
<feColorMatrix type="matrix" values="0 0 0 0 0.254118 0 0 0 0 0.235294 0 0 0 0 0.746667 0 0 0 1 0"/>
<feBlend mode="normal" in2="effect2_innerShadow_2474_3370" result="effect3_innerShadow_2474_3370"/>
<feColorMatrix in="SourceAlpha" type="matrix" values="0 0 0 0 0 0 0 0 0 0 0 0 0 0 0 0 0 0 127 0" result="hardAlpha"/>
<feMorphology radius="0.765556" operator="erode" in="SourceAlpha" result="effect4_innerShadow_2474_3370"/>
<feOffset dy="3.06223"/>
<feGaussianBlur stdDeviation="1.91389"/>
<feComposite in2="hardAlpha" operator="arithmetic" k2="-1" k3="1"/>
<feColorMatrix type="matrix" values="0 0 0 0 1 0 0 0 0 1 0 0 0 0 1 0 0 0 0.32 0"/>
<feBlend mode="normal" in2="effect3_innerShadow_2474_3370" result="effect4_innerShadow_2474_3370"/>
</filter>
<filter id="filter2_d_2474_3370" x="138.383" y="84.6553" width="154.449" height="121.821" filterUnits="userSpaceOnUse" color-interpolation-filters="sRGB">
<feFlood flood-opacity="0" result="BackgroundImageFix"/>
<feColorMatrix in="SourceAlpha" type="matrix" values="0 0 0 0 0 0 0 0 0 0 0 0 0 0 0 0 0 0 127 0" result="hardAlpha"/>
<feOffset dy="3.06223"/>
<feGaussianBlur stdDeviation="1.53111"/>
<feComposite in2="hardAlpha" operator="out"/>
<feColorMatrix type="matrix" values="0 0 0 0 0.0941176 0 0 0 0 0.0941176 0 0 0 0 0.0941176 0 0 0 0.48 0"/>
<feBlend mode="normal" in2="BackgroundImageFix" result="effect1_dropShadow_2474_3370"/>
<feBlend mode="normal" in="SourceGraphic" in2="effect1_dropShadow_2474_3370" result="shape"/>
</filter>
<linearGradient id="paint0_linear_2474_3370" x1="170.659" y1="-0.167765" x2="-30.1428" y2="57.4739" gradientUnits="userSpaceOnUse">
<stop stop-color="#CBCAFF"/>
<stop offset="1" stop-color="#716BFF"/>
</linearGradient>
<linearGradient id="paint1_linear_2474_3370" x1="87.2734" y1="0" x2="87.2734" y2="174.547" gradientUnits="userSpaceOnUse">
<stop stop-color="#5B54FF"/>
<stop offset="1" stop-color="#443FC8"/>
</linearGradient>
<clipPath id="clip0_2474_3370">
<rect width="178.41" height="179.088" rx="18.3734" transform="matrix(0.83205 -0.5547 0.830139 0.557556 73 167.166)" fill="white"/>
</clipPath>
<clipPath id="clip1_2474_3370">
<rect width="169.689" height="170.333" rx="18.3734" transform="matrix(0.83205 -0.5547 0.830139 0.557556 80.2676 189.895)" fill="white"/>
</clipPath>
<clipPath id="clip2_2474_3370">
<rect width="163.068" height="163.687" rx="18.3734" transform="matrix(0.83205 -0.5547 0.830139 0.557556 85.7871 209.438)" fill="white"/>
</clipPath>
<clipPath id="clip3_2474_3370">
<path d="M89.3022 151.359C82.2824 146.644 82.2955 139.019 89.3314 134.329L209.084 54.4937C216.12 49.8031 227.514 49.8227 234.534 54.5374L354.011 134.783C361.031 139.498 361.018 147.123 353.982 151.813L234.23 231.648C227.194 236.339 215.799 236.319 208.78 231.605L89.3022 151.359Z" fill="white"/>
</clipPath>
</defs>
</svg>
